<?xml version="1.0" standalone="no"?>
<!DOCTYPE svg PUBLIC "-//W3C//DTD SVG 20010904//EN"
 "http://www.w3.org/TR/2001/REC-SVG-20010904/DTD/svg10.dtd">
<svg version="1.0" xmlns="http://www.w3.org/2000/svg"
 width="128.000000pt" height="128.000000pt" viewBox="0 0 128.000000 128.000000"
 preserveAspectRatio="xMidYMid meet">

<g transform="translate(0.000000,128.000000) scale(0.100000,-0.100000)"
fill="#000000" stroke="none">
<path d="M595 1243 c-208 -13 -396 -142 -489 -338 -45 -94 -60 -161 -60 -275
0 -251 173 -482 423 -567 93 -32 249 -32 342 0 194 66 355 234 404 423 19 75
19 230 0 313 -22 93 -70 176 -153 262 -127 134 -279 193 -467 182z m349 -525
c3 -13 6 -52 6 -88 0 -116 -72 -230 -179 -282 -66 -33 -196 -33 -262 0 -80 39
-144 117 -170 204 -7 26 -5 28 34 39 23 6 72 19 108 29 l67 18 5 -27 c12 -58
93 -121 157 -121 45 0 107 36 135 78 22 34 26 50 24 98 -2 49 0 59 17 65 34
14 52 9 58 -13z"/>
</g>
</svg>
